<?xml version="1.0" encoding="utf-8"?>
<!-- Generator: Adobe Illustrator 16.0.0, SVG Export Plug-In . SVG Version: 6.00 Build 0)  -->
<!DOCTYPE svg PUBLIC "-//W3C//DTD SVG 1.1//EN" "http://www.w3.org/Graphics/SVG/1.1/DTD/svg11.dtd">
<svg version="1.1" id="Layer_1" xmlns="http://www.w3.org/2000/svg" xmlns:xlink="http://www.w3.org/1999/xlink" x="0px" y="0px"
	 width="1250px" height="240px" viewBox="0 0 1250 240" enable-background="new 0 0 1250 240" xml:space="preserve">
<g id="Layer_2" display="none">
	<rect x="-0.5" y="0.5" display="inline" fill="#F40000" stroke="#FFFFFF" stroke-miterlimit="10" width="1250" height="238"/>
</g>
<path fill="#FFFFFF" stroke="#FFFFFF" stroke-miterlimit="10" d="M1309.473,147.212"/>
<path fill="#FFFFFF" stroke="#FFFFFF" stroke-width="3" stroke-miterlimit="10" d="M693.281,170.096
	c7.41-9.478,21.224-27.13,32.428-50.317c7.908-16.364,15.19-23.732,20.877-38.664c5.923-15.552-0.261-23.336-4.308-24.221
	c-4.046-0.885-19.384,6.884-18.306,21.417c0.462,6.249-0.22,17.419,17.498,19.377c16.153,1.785,17.052-4.474,21-1.02
	c2.717,2.378-3.564,21.682-7.919,34.531c-4.474,13.19-20.08,45.017-19.543,59.804c0.466,12.792,5.261,25.538,15.885,26.883
	c7.27,0.92,18.899-3.07,18.845-3.257c-0.651-2.231-1.023-5.585-1.023-5.585s-15.849,3.8-20.782-6.313
	c-5.122-10.493,0.696-32.071,3.5-40.029c2.799-7.958,12.502-35.091,15.614-43.343c3.111-8.253,5.453-20.941,2.187-27.791
	c-2.721-5.711-17.133,0.823-25.264,0.307c-6.211-0.395-11.331-1.405-12.729-10.505c-1.545-10.046,3.528-15.735,8.077-16.063
	c4.55-0.329-1.573,18.021-2.506,20.378c-0.933,2.358-20.983,39.221-29.8,51.265c-9.04,12.348-20.734,29.646-34.19,44.108
	c-13.1,14.077-29.615,28.046-42.098,28.679c-6.721,0.341-14.012-8.282-14.709-9.047c-0.167-0.182-5.384,7.649-5.384,7.649
	s5.654,9.546,19.652,9.545c10.079-0.001,15.021-2.374,22.076-6.485C659.509,207.232,677.305,190.532,693.281,170.096z"/>
<path fill="#FFFFFF" stroke="#FFFFFF" stroke-miterlimit="10" d="M1235.754,152.356c-0.604,0.938-18.416,31.614-23.153,39.265
	c-2.069,3.34-17.43,30.33-32.844,28.81c-10.613-1.046-13.528-10.835-14.252-19.217c4.213-3.705,7.292-6.728,8.599-8.063
	c11.516-11.79,25.22-35.58,27.729-48.442c2.307-11.835-4.054-16.745-9.153-16.063c-9.31,1.246-23.513,13.695-30.96,37.734
	c-2.224,7.175-3.694,17.986-3.425,28.607c-4.213,3.886-8.398,7.278-12.19,9.637c-9.904,6.155-25.978,25.975-46.306-1.021
	c-15.011-19.932-12.476-21.133-12.476-21.133c4.597-0.513,24.917-0.368,32.937-22.465c8.713-24.018-7.033-33.92-10.77-33.91
	c-8.401,0.021-20.172,2.647-25.579,14.217c-0.127,0.27-0.682-9.899-1.327-22.954c5.852-21.776,11.504-43.235,12.1-45.824
	c2.696-11.729,5.381-28.301,4.039-38.244c-1.99-14.747-7.471-21.72-14.538-21.417s-13.461,24.221-13.192,39.009
	c0.078,4.28,1.574,40.916,2.723,69.472c-3.466,14.413-3.621,26.115-14.389,45.151c-5.685,10.052-20.82,34.335-43.522,44.217
	c-10.839,4.718-15.708-3.367-17.657-12.421c3.5-4.106,5.948-7.553,6.889-8.74c2.892-3.651,19.602-26.424,20.46-37.989
	c0.829-11.201-8.823-17.082-13.461-17.082c-8.076,0-16.468,9.555-20.938,28.092c-2.079,8.617-3.269,22.561-1.161,34.562
	c-7.093,7.867-18.024,14.034-24.745,13.324c-13.149-1.39-14.817-35.149-16.422-46.402c-1.606-11.254-3.479-30.587-18.576-29.065
	c-15.098,1.521-28.138,21.692-31.749,34.435c-2.021,7.131-5.611,19.962-5.828,23.303c-0.017,0.261-1.769-9.646-1.952-17.547
	c-0.004-0.241-0.042-0.773-0.103-1.52c2.299-4.438,5.166-9.943,6.249-11.9c2.962-5.354,3.569-12.697,3.77-15.808
	c0.269-4.207-2.604-11.571-5.923-11.473c-3.321,0.098-9.154,5.354-9.154,14.532c0,3.724,0.188,13.497,0.359,21.503
	c-4.646,8.649-11.069,20.156-13.551,24.135c-4.178,6.69-7.075,16.279-14.538,16.317c-8.224,0.042-7.376-30.753-7.376-35.316
	s3.533-40.762,3.533-42.282c0-1.521-6.604-3.412-6.926-0.674c-0.321,2.738-1.567,26.635-5.923,41.813
	c-4.357,15.18-8.472,37.01-22.666,36.973c-8.081-0.021-13.531-9.556-13.947-17.596c-0.075-1.435-0.688-7.12-1.28-13.64
	c3.515-7.182,6.476-13.931,7.742-17.721c6.655-19.934,3.771-31.564-4.859-31.59c-8.872-0.025-9.27,24.826-9.409,27.256
	c-0.14,2.393,0.261,10.278,0.933,18.974c-4.978,10.213-10.206,20.159-11.971,22.075c-4.308,4.671-8.613,8.45-23.065,11.194
	c-4.558,0.865-2.044,7.849,0.087,7.988c0.799,0.053,6.293-0.96,12.033-3.55c5.743-2.589,9.752-5.011,12.233-7.355
	c2.856-2.696,7.364-10.142,11.749-18.392c0.605,5.912,1.285,11.182,1.95,14.205c1.172,5.329,7.227,14.907,16.773,14.735
	c11.853-0.215,18.161-6.915,21.813-15.002c2.879-6.38,7.253-23.728,7.247-25.907c-0.008-1.858,0.757,16.024,1.221,22.819
	c0.412,6.029-0.392,17.62,8.505,18.316c6.436,0.504,9.963-3.707,16.067-12.527c4.751-6.87,11.256-18.718,13.902-23.625l0,0
	l2.477,34.477c0,0-0.014,0.316,0.176,0.58c0.583,0.811,6.503,2.572,7.21-1.513c0.896-5.196,1.925-21.794,4.173-29.703
	c2.248-7.91,7.693-28.692,16.557-35.949c8.833-7.233,14.054-10.567,20.191-3.441c4.173,4.844,6.44,38.838,7.403,44.618
	c0.963,5.778,6.28,27.118,19.129,27.027c9.326-0.065,21.522-6.479,28.48-13.269c2.944,8.437,8.262,14.654,17.147,15.094
	c27.45,1.359,49.902-35.98,54.555-44.688c1.266-2.368,8.652-16.919,11.124-25.874c0.181,4.744,0.27,5.549,0.27,6.106
	c0,3.347-3.141,67.604-2.423,73.719c0.352,2.984,8.568,3.731,8.646,0.851c0.077-2.873,0.305-12.607,0.155-17.168
	c-0.343-10.59,1.281-19.273,1.224-20.396c-0.075-1.52,12.555,34.574,34.396,35.184c13.542,0.377,30.331-10.708,42.313-20.392
	c2.096,12.438,7.467,22.387,18.047,22.391c28.516,0.014,48.18-44.712,51.068-49.579c2.707-4.56,10.929-19.257,13.395-23.923
	C1243.48,152.218,1237.989,148.882,1235.754,152.356z M1098.184,137.461c5.115-3.06,12.043-5.243,14.808-1.53
	c3.226,4.335,4.576,8.669,0.91,18.688c-4.235,11.581-7.374,13.696-11.948,18.027c-1.329,1.257-10.769,4.844-15.346,1.02
	c-2.002-1.673-3.87-17.507-1.893-22.182C1088.492,142.56,1095.521,139.053,1098.184,137.461z M802.016,160.582
	c0-3.79,0.324-8.606,0.361-9.236c0.614-9.758,2.153-14.739,3.478-14.688c3.729,0.146,3.171,12.935,2.021,16.506
	c-0.771,2.398-2.949,7.435-5.666,13.311C802.089,164.287,802.016,162.27,802.016,160.582z M889.174,152.968
	c-0.066-5.79,2.925-12.977,4.913-13.067c1.349-0.061,1.048,5.513,0.729,8.05c-0.401,3.179-3.153,9.982-3.929,11.801
	c-0.229,0.534-0.644,1.391-1.194,2.482C889.426,158.762,889.202,155.292,889.174,152.968z M996.959,176.826
	c0-3.044,4.166-36.261,14.169-36.139c16.185,0.196,0.97,25.733-5.81,35.451c-2.404,3.445-5.254,7.477-8.367,11.523
	C996.668,182.256,996.959,177.784,996.959,176.826z M1080.165,63.019c-0.155-18.864,0.263-36.867,4.752-36.751
	c0.642,0.017,3.349,6.048,3.036,17.986c-0.365,14.009-4.229,30.646-5.115,36.225c-0.199,1.268-0.786,4.059-1.625,7.833
	C1080.628,75.448,1080.18,64.79,1080.165,63.019z M1192.68,138.079c6.221,1.909-1.511,14.787-5.45,22.65
	c-2.361,4.717-11.324,16.331-21.442,26.881c1.803-11.031,8.787-30.016,12.018-35.885
	C1180.657,146.544,1188.695,136.857,1192.68,138.079z"/>
<path fill="#FFFFFF" stroke="#FFFFFF" stroke-width="3" stroke-miterlimit="10" d="M68.69,199.353
	c9.3-10.096,42.079-55.63,48.285-71.059c7.088-17.621,22.56-43.316,25.218-66.812c2.658-23.494-5.065-24.438-9.157-24.24
	c-9.149,0.444-16.3,16.783-17.408,31.466c-1.108,14.685,2.234,55.802,2.566,64.612c0.333,8.812,4.541,82.244,4.541,82.244h7.975
	c0,0,8.639-76.151,25.252-113.912c16.613-37.76,39.455-49.854,54.074-56.147c14.62-6.293,31.65-3.011,32.979,19.646
	c1.329,22.657,4.923,90.789,9.303,106.988c5.1,18.863,18.907,47.741,46.063,47.219c1.42-0.029,5.392-0.473,6.593-0.977
	c4.149-1.733-2.328-6.642-2.328-6.642s-9.637-0.976-16.871-5.439c-9.563-5.901-19.51-16.147-24.05-39.434
	c-7.974-40.907-6.747-92.089-7.179-100.285c-0.718-13.598-12.922-36.538-26.922-36.375c-14.859,0.174-60.656,24.497-73.945,45.894
	c-13.292,21.397-21.349,76.967-23.343,83.259c-1.994,6.294-3.937-36.346-3.937-36.346s-4.161-42.139-2.513-56.432
	c1.575-13.664,8.615-24.815,10.05-13.258c2.251,18.118-18.464,58.626-31.947,79.888c-14.164,22.337-22.322,40.702-44.511,63.909
	c-8.662,9.061-18.815,14.402-31.05,14.278c-7.721-0.081-10.243-4.706-13.46-8.839c-0.53-0.68-4.519,7.369-4.519,7.369
	c1.331,3.271,6.636,12.455,17.421,12.464C45.274,222.407,57.856,211.112,68.69,199.353z"/>
<path fill="#FFFFFF" stroke="#FFFFFF" stroke-miterlimit="10" d="M354.146,172.006"/>
<path fill="#FFFFFF" stroke="#FFFFFF" stroke-width="2" stroke-miterlimit="10" d="M303.447,219.186c0,0,8.723-0.415,18.46-12.889
	c9.736-12.477,20.177-30.31,22.086-37.452c0.327-1.225,2.703-9.292,2.664-11.997c-0.074-5.257-0.469-13.673-3.494-14.925
	c-4.582-1.898-12.182,7.011-13.461,13.448c-0.83,4.18-0.382,9.896,0,13.514c0.386,3.652,5.965,17.604,9.468,26.367
	c4.181,10.457,10.133,23.609,21.397,23.791c9.74,0.156,21.316-13.813,23.769-17.357c2.381-3.438,16.174-25.133,16.174-25.133
	s5.999-12.053,8.656-19.036c2.782-7.308,3.51-22.056-0.719-22.521c-7.717-0.85-11.352,19.547-10.365,29.745
	c0.863,8.914,3.436,52.674,4.009,54.029c0.572,1.356,4.068,0.022,4.068,0.022s2.682-19.743,5.923-34.547
	c3.246-14.826,5.741-19.731,7.403-23.457c3.411-7.64,15.35-18.522,25.576-19.249c5.385-0.383,7.521,6.688,7.808,9.943
	c0.286,3.255,4.246,45.181,5.115,49.845c1.145,6.146,4.735,17.535,17.776,17.535c13.269,0,29.275-22.526,33.105-29.136
	c4.037-6.967,14.075-30.621,14.647-39.3s-0.502-17.733-4.295-18.171c-3.676-0.424-19.468,14.391-22.332,35.544
	s4.64,39.989,14.886,48.259c3.787,3.057,10.375,3.329,12.888-7.465c3.098-13.307,3.303-36.458,3.303-36.458
	s2.013,27.823,16.619,42.236c9.731,9.603,21.602,9.83,27.901,5.217c6.3-4.615-0.799-4.452-0.799-4.452s-11.251,11.126-24.229-4.844
	c-12.98-15.973-20.164-58.765-20.504-75.325c-0.287-13.922-3.222-1.356-3.15,0.271c0.018,0.406,0.859,25.087,0.645,27.596
	c-0.215,2.509-4.038,41.934-4.271,43.975c-0.359,3.145-3.859,8.924-8.884,2.805c-8.592-10.461-9.904-28.854-9.97-29.761
	c-0.811-11.074,5.993-26.313,8.22-31.43c3.368-7.737,5.922-12.62,8.884-12.238c1.318,0.171,2.551,8.784-1.077,19.632
	c-1.443,4.316-5.334,16.564-6.72,19.673c-4.974,11.158-16.421,27.119-25.182,34.379c-4.308,3.569-12.589,3.686-17.23,0
	c-4.173-3.314-4.565-14.4-5.384-19.76c-1.272-8.325-3.231-32.572-3.231-34.674c0-3.255-1.521-21.955-15.076-20.779
	c-14.963,1.297-29.545,20.517-33.841,35.162c-4.296,14.646-5.684,27.709-5.684,27.709l-1.475-24.408c0,0-2.237-15.642-1.402-21.636
	c0.657-4.721,3.634-11.729,4.265-6.344c1.079,9.199-2.863,18.938-8.305,27.663c-3.32,5.323-9.37,13.781-14.402,21.345
	c-3.712,5.58-6.985,9.639-11.486,13.598c-5.346,4.7-17.52,5.995-21.896-2.465c-4.308-8.328-8.189-18.262-10.5-23.541
	c-1-2.286-8.998-14.406-5.752-26.34c3.002-11.039,6.655-10.095,7.451-9.227c1.128,1.231,1.464,8.37,0.276,12.535
	c-1.222,4.278-2.657,8.242-3.231,9.517c-1.638,3.638-10.484,18.702-11.486,20.059c-1.002,1.355-16.268,21.748-25.756,22.479
	C290.801,211.569,303.447,219.186,303.447,219.186z"/>
<path fill="#FFFFFF" stroke="#FFFFFF" stroke-width="2" stroke-miterlimit="10" d="M340.719,108.786
	c-2.213-0.721-4.637,2.758-5.667,7.797c-1.64,8.015,3.124,10.04,5.061,10.446c3.8,0.797,10.864-3.059,12.314-8.93
	c1.45-5.873-0.544-7.561-2.458-7.839c-1.912-0.279-4.844,3.058-6.873,5.911c-0.856,1.203-2.582-2.459-1.258-3.696
	s4.419-5.992,8.729-5.037c4.186,0.927,5.452,6.055,4.779,9.689c-0.759,4.097-5.965,14.771-15.951,12.684
	c-4.988-1.043-7.813-5.83-7.875-9.815c-0.061-4.013,1.291-6.838,2.087-8.732c0.748-1.78,3.984-6.045,7.605-5.291
	C342.631,106.269,341.504,109.042,340.719,108.786z"/>
</svg>
